<svg width="32" height="32" viewBox="0 0 32 32" fill="none" xmlns="http://www.w3.org/2000/svg">
<g id="Group">
<g id="Group_2">
<path id="Path" d="M18.6667 18H25.3333C26.0693 18 26.6667 18.5973 26.6667 19.3333V24.6667C26.6667 25.4027 26.0693 26 25.3333 26H20C19.264 26 18.6667 25.4027 18.6667 24.6667V18C18.6667 10 20 8.66667 24 6" stroke="#00FF1A" stroke-width="1.5" stroke-linecap="round" stroke-linejoin="round"/>
<path id="Path_2" d="M5.33333 18H12C12.736 18 13.3333 18.5973 13.3333 19.3333V24.6667C13.3333 25.4027 12.736 26 12 26H6.66666C5.93066 26 5.33333 25.4027 5.33333 24.6667V18C5.33333 10 6.66666 8.66667 10.6667 6" stroke="#00FF1A" stroke-width="1.5" stroke-linecap="round" stroke-linejoin="round"/>
</g>
</g>
</svg>
