<svg width="24" height="24" viewBox="0 0 24 24" fill="none" xmlns="http://www.w3.org/2000/svg">
<g id="Group">
<path id="Path" fill-rule="evenodd" clip-rule="evenodd" d="M7.73121 20.8327C7.22414 21.0973 6.61069 21.0507 6.14942 20.7125C5.68816 20.3742 5.4593 19.8032 5.5593 19.24L6.36864 14.6011L2.96122 11.3357C2.54472 10.9385 2.39208 10.3381 2.56832 9.79022C2.74455 9.24234 3.21861 8.84352 3.78857 8.76363L8.51954 8.08735L10.6554 3.82658C10.9087 3.31558 11.4297 2.99231 12 2.99231C12.5703 2.99231 13.0913 3.31558 13.3445 3.82658L15.4804 8.08735L20.2114 8.76363C20.7814 8.84352 21.2554 9.24234 21.4317 9.79022C21.6079 10.3381 21.4552 10.9385 21.0388 11.3357L17.6313 14.6011L18.4407 19.241C18.5407 19.8042 18.3118 20.3752 17.8505 20.7135C17.3893 21.0517 16.7758 21.0983 16.2688 20.8337L12 18.6277L7.73121 20.8327Z" fill="#FAE101" stroke="#FAE101" stroke-width="1.5" stroke-linecap="round" stroke-linejoin="round"/>
</g>
</svg>
