<svg width="40" height="40" viewBox="0 0 40 40" fill="none" xmlns="http://www.w3.org/2000/svg">
<rect width="40" height="40" rx="20" fill="#00FF1A"/>
<path fill-rule="evenodd" clip-rule="evenodd" d="M18.856 21.144C17.686 19.974 16.804 18.664 16.218 17.335C16.094 17.054 16.167 16.725 16.384 16.508L17.203 15.69C17.874 15.019 17.874 14.07 17.288 13.484L16.114 12.31C15.333 11.529 14.067 11.529 13.286 12.31L12.634 12.962C11.893 13.703 11.584 14.772 11.784 15.832C12.278 18.445 13.796 21.306 16.245 23.755C18.694 26.204 21.555 27.722 24.168 28.216C25.228 28.416 26.297 28.107 27.038 27.366L27.689 26.715C28.47 25.934 28.47 24.668 27.689 23.887L26.516 22.714C25.93 22.128 24.98 22.128 24.395 22.714L23.492 23.618C23.275 23.835 22.946 23.908 22.665 23.784C21.336 23.197 20.026 22.314 18.856 21.144Z" stroke="#323232" stroke-width="1.5" stroke-linecap="round" stroke-linejoin="round"/>
</svg>
