<svg width="32" height="32" viewBox="0 0 32 32" fill="none" xmlns="http://www.w3.org/2000/svg">
<path d="M13.3334 14H6.66671C5.93071 14 5.33337 13.4027 5.33337 12.6667V7.33333C5.33337 6.59733 5.93071 6 6.66671 6H12C12.736 6 13.3334 6.59733 13.3334 7.33333V14C13.3334 22 12 23.3333 8.00004 26" stroke="#00FF1A" stroke-width="1.5" stroke-linecap="round" stroke-linejoin="round"/>
<path d="M26.6667 14H20C19.264 14 18.6667 13.4027 18.6667 12.6667L18.6667 7.33333C18.6667 6.59733 19.264 6 20 6H25.3334C26.0694 6 26.6667 6.59733 26.6667 7.33333L26.6667 14C26.6667 22 25.3334 23.3333 21.3334 26" stroke="#00FF1A" stroke-width="1.5" stroke-linecap="round" stroke-linejoin="round"/>
</svg>
