<svg width="23" height="18" viewBox="0 0 23 18" fill="none" xmlns="http://www.w3.org/2000/svg">
<g id="Group">
<path id="Path" d="M20.5 14.5C20.5 15.8807 19.3807 17 18 17H15.5" stroke="#00FF1A" stroke-width="1.5" stroke-linecap="round" stroke-linejoin="round"/>
<path id="Path_2" d="M2.5 5V3.5C2.5 2.11929 3.61929 1 5 1H18C19.3807 1 20.5 2.11929 20.5 3.5" stroke="#00FF1A" stroke-width="1.5" stroke-linecap="round" stroke-linejoin="round"/>
<path id="Path_3" d="M20.5 3.5V6.5" stroke="#00FF1A" stroke-width="1.5" stroke-linecap="round" stroke-linejoin="round"/>
<path id="Path_4" d="M20.5 11.5V14.5" stroke="#00FF1A" stroke-width="1.5" stroke-linecap="round" stroke-linejoin="round"/>
<path id="Path_5" fill-rule="evenodd" clip-rule="evenodd" d="M19 6.5H20.5C21.0523 6.5 21.5 6.94772 21.5 7.5V10.5C21.5 11.0523 21.0523 11.5 20.5 11.5H19C17.6193 11.5 16.5 10.3807 16.5 9V9C16.5 7.61929 17.6193 6.5 19 6.5V6.5Z" stroke="#00FF1A" stroke-width="1.5" stroke-linecap="round" stroke-linejoin="round"/>
<path id="Path_6" d="M1.49999 11.5H12.5" stroke="#00FF1A" stroke-width="1.5" stroke-linecap="round" stroke-linejoin="round"/>
<path id="Path_7" fill-rule="evenodd" clip-rule="evenodd" d="M3.75 17H10.25C10.8467 17 11.419 16.7629 11.841 16.341C12.2629 15.919 12.5 15.3467 12.5 14.75V10.25C12.5 9.00736 11.4926 8 10.25 8H3.75C3.15326 8 2.58097 8.23705 2.15901 8.65901C1.73705 9.08097 1.5 9.65326 1.5 10.25V14.75C1.5 15.3467 1.73705 15.919 2.15901 16.341C2.58097 16.7629 3.15326 17 3.75 17Z" stroke="#00FF1A" stroke-width="1.5" stroke-linecap="round" stroke-linejoin="round"/>
</g>
</svg>
